<?xml version="1.0" encoding="UTF-8"?>
<svg width="10px" height="20px" viewBox="0 0 10 20" version="1.1" xmlns="http://www.w3.org/2000/svg" xmlns:xlink="http://www.w3.org/1999/xlink">
    <!-- Generator: Sketch 63.1 (92452) - https://sketch.com -->
    <title>ion-social-facebook - Ionicons</title>
    <desc>Created with Sketch.</desc>
    <g id="Page-1" stroke="none" stroke-width="1" fill="none" fill-rule="evenodd">
        <g id="81.Spotlight" transform="translate(-1108.000000, -405.000000)" fill="#1D1C4F">
            <g id="Group-2" transform="translate(0.000000, 387.000000)">
                <g id="Group-5" transform="translate(280.000000, 14.000000)">
                    <g id="Group-4" transform="translate(828.000000, 4.000000)">
                        <path d="M6.66666667,6.66666667 L10,6.66666667 L9.58333333,10 L6.66666667,10 L6.66666667,20 L2.34375,20 L2.34375,10 L0,10 L0,6.66666667 L2.34375,6.66666667 L2.34375,4.42708333 C2.34375,2.96874271 2.70832969,1.86632318 3.4375,1.11979167 C4.16667031,0.373260156 5.38193594,0 7.08333333,0 L10,0 L10,3.33333333 L8.22916667,3.33333333 C7.56944115,3.33333333 7.14409818,3.43749896 6.953125,3.64583333 C6.76215182,3.85416771 6.66666667,4.20138646 6.66666667,4.6875 L6.66666667,6.66666667 Z" id="ion-social-facebook---Ionicons"></path>
                    </g>
                </g>
            </g>
        </g>
    </g>
</svg>