<?xml version="1.0" encoding="UTF-8"?>
<svg width="22px" height="17px" viewBox="0 0 22 17" version="1.1" xmlns="http://www.w3.org/2000/svg" xmlns:xlink="http://www.w3.org/1999/xlink">
    <!-- Generator: Sketch 63.1 (92452) - https://sketch.com -->
    <title>ion-social-twitter - Ionicons</title>
    <desc>Created with Sketch.</desc>
    <g id="Page-1" stroke="none" stroke-width="1" fill="none" fill-rule="evenodd">
        <g id="81.Spotlight" transform="translate(-1138.000000, -407.000000)" fill="#1D1C4F">
            <g id="Group-2" transform="translate(0.000000, 387.000000)">
                <g id="Group-5" transform="translate(280.000000, 14.000000)">
                    <g id="Group-4" transform="translate(828.000000, 4.000000)">
                        <path d="M51.7222222,4.03645833 C51.1699596,4.86285135 50.4336204,5.6006912 49.5131827,6.25 L49.5131827,6.78125 C49.5131827,9.88022383 48.3549825,12.6913936 46.0385476,15.2148438 C43.7221126,17.7382939 40.6463626,19 36.8112053,19 C34.3567046,19 32.0863256,18.3507009 30,17.0520833 C30.4909001,17.1111114 30.8437293,17.140625 31.0584981,17.140625 C33.1141424,17.140625 34.9549903,16.5208395 36.581097,15.28125 C35.629978,15.251736 34.7709156,14.9639784 34.0038842,14.4179688 C33.2368527,13.8719591 32.7152792,13.1710112 32.4391478,12.3151042 C32.8073229,12.3741322 33.0834501,12.4036458 33.2675377,12.4036458 C33.5743502,12.4036458 33.9732006,12.3446186 34.4641008,12.2265625 C33.4516192,12.0199642 32.6002271,11.5256115 31.9098988,10.7434896 C31.2195705,9.96136762 30.8744115,9.05382461 30.8744115,8.02083333 L30.8744115,7.9765625 C31.5493992,8.33073094 32.2243767,8.5078125 32.8993644,8.5078125 C31.5800703,7.68141948 30.9204331,6.48611893 30.9204331,4.921875 C30.9204331,4.18402409 31.1198583,3.47569784 31.5187147,2.796875 C33.8811716,5.60070846 36.933911,7.09114495 40.6770245,7.26822917 C40.615662,7.06163091 40.5849812,6.73698138 40.5849812,6.29427083 C40.5849812,5.08419534 41.0145123,4.06597635 41.8735876,3.23958333 C42.7326628,2.41319031 43.7911503,2 45.0490819,2 C46.3070135,2 47.3808414,2.4574607 48.2705979,3.37239583 C49.1910357,3.22482565 50.1421404,2.87066253 51.1239407,2.30989583 C50.8171281,3.34288711 50.1574909,4.13975414 49.1450094,4.70052083 C50.0961284,4.61197872 50.9551908,4.39062677 51.7222222,4.03645833 Z" id="ion-social-twitter---Ionicons"></path>
                    </g>
                </g>
            </g>
        </g>
    </g>
</svg>